<?xml version="1.0" encoding="Shift-JIS"?>
<!DOCTYPE svg PUBLIC "-//W3C//DTD SVG 1.1//EN"
  "http://www.w3.org/Graphics/SVG/1.1/DTD/svg11.dtd">
<svg version="1.1" width="1500mm" height="1500mm"
  viewBox="0 0 1500 1500"
  preserveAspectRatio="xMidYMid"
  fill-rule="evenodd"
  xmlns="http://www.w3.org/2000/svg"
  xmlns:xlink="http://www.w3.org/1999/xlink">
<rect fill="#b4b4b4" height="1500.000000" width="1500.000000" x="0.000000" y="0.000000" />
<circle cx="975" cy="979" r="1" fill="none" stroke="#961414" stroke-width="2" />
<circle cx="976" cy="976" r="2" fill="none" stroke="#961414" stroke-width="2" />
<circle cx="977" cy="971" r="3" fill="none" stroke="#961414" stroke-width="2" />
<circle cx="978" cy="964" r="4" fill="none" stroke="#961414" stroke-width="2" />
<circle cx="979" cy="955" r="5" fill="none" stroke="#961414" stroke-width="2" />
<circle cx="980" cy="944" r="6" fill="none" stroke="#961414" stroke-width="2" />
<circle cx="981" cy="931" r="7" fill="none" stroke="#961414" stroke-width="2" />
<circle cx="980" cy="1268" r="8" fill="none" stroke="#961414" stroke-width="2" />
<circle cx="981" cy="1211" r="9" fill="none" stroke="#961414" stroke-width="2" />
<circle cx="982" cy="1152" r="10" fill="none" stroke="#961414" stroke-width="2" />
<circle cx="983" cy="1023" r="11" fill="none" stroke="#961414" stroke-width="2" />
<circle cx="984" cy="1000" r="12" fill="none" stroke="#961414" stroke-width="2" />
<circle cx="983" cy="1485" r="13" fill="none" stroke="#961414" stroke-width="2" />
<circle cx="984" cy="1094" r="14" fill="none" stroke="#961414" stroke-width="2" />
<circle cx="985" cy="1065" r="15" fill="none" stroke="#961414" stroke-width="2" />
<circle cx="984" cy="1126" r="16" fill="none" stroke="#961414" stroke-width="2" />
<circle cx="983" cy="1185" r="17" fill="none" stroke="#961414" stroke-width="2" />
<circle cx="982" cy="1242" r="18" fill="none" stroke="#961414" stroke-width="2" />
<circle cx="981" cy="1297" r="19" fill="none" stroke="#961414" stroke-width="2" />
<circle cx="980" cy="1350" r="20" fill="none" stroke="#961414" stroke-width="2" />
<circle cx="979" cy="1401" r="21" fill="none" stroke="#961414" stroke-width="2" />
<circle cx="978" cy="1450" r="22" fill="none" stroke="#961414" stroke-width="2" />
<circle cx="933" cy="1451" r="23" fill="none" stroke="#961414" stroke-width="2" />
<circle cx="934" cy="1404" r="24" fill="none" stroke="#961414" stroke-width="2" />
<circle cx="935" cy="1355" r="25" fill="none" stroke="#961414" stroke-width="2" />
<circle cx="936" cy="1304" r="26" fill="none" stroke="#961414" stroke-width="2" />
<circle cx="937" cy="1251" r="27" fill="none" stroke="#961414" stroke-width="2" />
<circle cx="938" cy="1196" r="28" fill="none" stroke="#961414" stroke-width="2" />
<circle cx="939" cy="1139" r="29" fill="none" stroke="#961414" stroke-width="2" />
<circle cx="940" cy="1080" r="30" fill="none" stroke="#961414" stroke-width="2" />
<circle cx="941" cy="1019" r="31" fill="none" stroke="#961414" stroke-width="2" />
<circle cx="942" cy="956" r="32" fill="none" stroke="#961414" stroke-width="2" />
<circle cx="943" cy="891" r="33" fill="none" stroke="#961414" stroke-width="2" />
<circle cx="944" cy="824" r="34" fill="none" stroke="#961414" stroke-width="2" />
<circle cx="945" cy="755" r="35" fill="none" stroke="#961414" stroke-width="2" />
<circle cx="946" cy="684" r="36" fill="none" stroke="#961414" stroke-width="2" />
<circle cx="947" cy="611" r="37" fill="none" stroke="#961414" stroke-width="2" />
<circle cx="948" cy="536" r="38" fill="none" stroke="#961414" stroke-width="2" />
<circle cx="949" cy="459" r="39" fill="none" stroke="#961414" stroke-width="2" />
<circle cx="950" cy="380" r="40" fill="none" stroke="#961414" stroke-width="2" />
<circle cx="951" cy="299" r="41" fill="none" stroke="#961414" stroke-width="2" />
<circle cx="952" cy="216" r="42" fill="none" stroke="#961414" stroke-width="2" />
<circle cx="953" cy="131" r="43" fill="none" stroke="#961414" stroke-width="2" />
<circle cx="954" cy="44" r="44" fill="none" stroke="#961414" stroke-width="2" />
<circle cx="865" cy="45" r="45" fill="none" stroke="#961414" stroke-width="2" />
<circle cx="864" cy="182" r="46" fill="none" stroke="#961414" stroke-width="2" />
<circle cx="863" cy="317" r="47" fill="none" stroke="#961414" stroke-width="2" />
<circle cx="862" cy="450" r="48" fill="none" stroke="#961414" stroke-width="2" />
<circle cx="861" cy="581" r="49" fill="none" stroke="#961414" stroke-width="2" />
<circle cx="860" cy="710" r="50" fill="none" stroke="#961414" stroke-width="2" />
<circle cx="859" cy="837" r="51" fill="none" stroke="#961414" stroke-width="2" />
<circle cx="858" cy="962" r="52" fill="none" stroke="#961414" stroke-width="2" />
<circle cx="857" cy="1085" r="53" fill="none" stroke="#961414" stroke-width="2" />
<circle cx="856" cy="1206" r="54" fill="none" stroke="#961414" stroke-width="2" />
<circle cx="855" cy="1325" r="55" fill="none" stroke="#961414" stroke-width="2" />
<circle cx="854" cy="1442" r="56" fill="none" stroke="#961414" stroke-width="2" />
<circle cx="741" cy="1443" r="57" fill="none" stroke="#961414" stroke-width="2" />
<circle cx="742" cy="1328" r="58" fill="none" stroke="#961414" stroke-width="2" />
<circle cx="743" cy="1211" r="59" fill="none" stroke="#961414" stroke-width="2" />
<circle cx="744" cy="1092" r="60" fill="none" stroke="#961414" stroke-width="2" />
<circle cx="745" cy="971" r="61" fill="none" stroke="#961414" stroke-width="2" />
<circle cx="746" cy="848" r="62" fill="none" stroke="#961414" stroke-width="2" />
<circle cx="747" cy="723" r="63" fill="none" stroke="#961414" stroke-width="2" />
<circle cx="748" cy="596" r="64" fill="none" stroke="#961414" stroke-width="2" />
<circle cx="749" cy="467" r="65" fill="none" stroke="#961414" stroke-width="2" />
<circle cx="750" cy="336" r="66" fill="none" stroke="#961414" stroke-width="2" />
<circle cx="751" cy="203" r="67" fill="none" stroke="#961414" stroke-width="2" />
<circle cx="752" cy="68" r="68" fill="none" stroke="#961414" stroke-width="2" />
<circle cx="615" cy="69" r="69" fill="none" stroke="#961414" stroke-width="2" />
<circle cx="614" cy="242" r="70" fill="none" stroke="#961414" stroke-width="2" />
<circle cx="613" cy="413" r="71" fill="none" stroke="#961414" stroke-width="2" />
<circle cx="612" cy="582" r="72" fill="none" stroke="#961414" stroke-width="2" />
<circle cx="611" cy="749" r="73" fill="none" stroke="#961414" stroke-width="2" />
<circle cx="610" cy="914" r="74" fill="none" stroke="#961414" stroke-width="2" />
<circle cx="609" cy="1077" r="75" fill="none" stroke="#961414" stroke-width="2" />
<circle cx="608" cy="1238" r="76" fill="none" stroke="#961414" stroke-width="2" />
<circle cx="607" cy="1397" r="77" fill="none" stroke="#961414" stroke-width="2" />
<circle cx="452" cy="1398" r="78" fill="none" stroke="#961414" stroke-width="2" />
<circle cx="453" cy="1241" r="79" fill="none" stroke="#961414" stroke-width="2" />
<circle cx="454" cy="1082" r="80" fill="none" stroke="#961414" stroke-width="2" />
<circle cx="455" cy="921" r="81" fill="none" stroke="#961414" stroke-width="2" />
<circle cx="456" cy="758" r="82" fill="none" stroke="#961414" stroke-width="2" />
<circle cx="457" cy="593" r="83" fill="none" stroke="#961414" stroke-width="2" />
<circle cx="458" cy="426" r="84" fill="none" stroke="#961414" stroke-width="2" />
<circle cx="459" cy="257" r="85" fill="none" stroke="#961414" stroke-width="2" />
<circle cx="460" cy="86" r="86" fill="none" stroke="#961414" stroke-width="2" />
<circle cx="287" cy="87" r="87" fill="none" stroke="#961414" stroke-width="2" />
<circle cx="286" cy="288" r="88" fill="none" stroke="#961414" stroke-width="2" />
<circle cx="285" cy="487" r="89" fill="none" stroke="#961414" stroke-width="2" />
<circle cx="284" cy="684" r="90" fill="none" stroke="#961414" stroke-width="2" />
<circle cx="283" cy="879" r="91" fill="none" stroke="#961414" stroke-width="2" />
<circle cx="282" cy="1072" r="92" fill="none" stroke="#961414" stroke-width="2" />
<circle cx="281" cy="1263" r="93" fill="none" stroke="#961414" stroke-width="2" />
<circle cx="94" cy="1264" r="94" fill="none" stroke="#961414" stroke-width="2" />
<circle cx="95" cy="1075" r="95" fill="none" stroke="#961414" stroke-width="2" />
<circle cx="96" cy="884" r="96" fill="none" stroke="#961414" stroke-width="2" />
<circle cx="97" cy="691" r="97" fill="none" stroke="#961414" stroke-width="2" />
<circle cx="98" cy="496" r="98" fill="none" stroke="#961414" stroke-width="2" />
<circle cx="99" cy="299" r="99" fill="none" stroke="#961414" stroke-width="2" />
<circle cx="100" cy="100" r="100" fill="none" stroke="#961414" stroke-width="2" />
</svg>
